<svg width="20" height="20" viewBox="0 0 20 20" fill="none" xmlns="http://www.w3.org/2000/svg">
<path d="M19.8264 5.96157C19.7817 4.9199 19.6177 4.20376 19.3827 3.58322C19.1404 2.92453 18.7675 2.3348 18.2789 1.84456C17.8016 1.34669 17.2236 0.95982 16.5896 0.714774C15.9819 0.473468 15.2883 0.305018 14.274 0.25909C13.2522 0.209273 12.9278 0.197754 10.3361 0.197754C7.74449 0.197754 7.4201 0.209273 6.40206 0.255201C5.3878 0.301128 4.69051 0.469728 4.08644 0.710885C3.44493 0.95982 2.87073 1.3428 2.39339 1.84456C1.90862 2.3348 1.53207 2.92842 1.29333 3.57948C1.05838 4.20376 0.894358 4.91601 0.849639 5.95768C0.801133 7.00713 0.789917 7.34029 0.789917 10.002C0.789917 12.6637 0.801133 12.9969 0.845852 14.0424C0.890571 15.0841 1.05473 15.8002 1.28969 16.4208C1.53207 17.0795 1.90862 17.6692 2.39339 18.1594C2.87073 18.6573 3.44872 19.0442 4.08265 19.2892C4.69051 19.5305 5.38401 19.699 6.39841 19.7449C7.41631 19.791 7.74085 19.8023 10.3325 19.8023C12.9242 19.8023 13.2486 19.791 14.2666 19.7449C15.2809 19.699 15.9781 19.5305 16.5822 19.2892C17.8651 18.7798 18.8793 17.7381 19.3753 16.4208C19.6101 15.7965 19.7743 15.0841 19.819 14.0424C19.8637 12.9969 19.8749 12.6637 19.8749 10.002C19.8749 7.34029 19.8712 7.00713 19.8264 5.96157ZM18.1075 13.9658C18.0664 14.9233 17.9098 15.4403 17.7793 15.785C17.4585 16.639 16.7985 17.3169 15.9669 17.6463C15.6313 17.7803 15.1243 17.9412 14.1957 17.9832C13.1888 18.0293 12.8869 18.0406 10.3399 18.0406C7.793 18.0406 7.48725 18.0293 6.48407 17.9832C5.55182 17.9412 5.0484 17.7803 4.71279 17.6463C4.29896 17.4892 3.92227 17.2403 3.61653 16.9147C3.29956 16.5968 3.05718 16.2139 2.90423 15.7889C2.77371 15.4442 2.61713 14.9233 2.57619 13.9697C2.53133 12.9357 2.52026 12.6254 2.52026 10.0096C2.52026 7.39385 2.53133 7.07984 2.57619 6.04969C2.61713 5.09224 2.77371 4.57522 2.90423 4.23054C3.05718 3.80538 3.29956 3.41866 3.62031 3.1045C3.9297 2.77897 4.3026 2.53003 4.71658 2.3731C5.05219 2.23906 5.55939 2.07824 6.48785 2.03605C7.49468 1.99012 7.79679 1.9786 10.3436 1.9786C12.8943 1.9786 13.1963 1.99012 14.1994 2.03605C15.1317 2.07824 15.6351 2.23906 15.9707 2.3731C16.3846 2.53003 16.7612 2.77897 17.067 3.1045C17.3839 3.4224 17.6263 3.80538 17.7793 4.23054C17.9098 4.57522 18.0664 5.09598 18.1075 6.04969C18.1522 7.08373 18.1634 7.39385 18.1634 10.0096C18.1634 12.6254 18.1522 12.9318 18.1075 13.9658Z" fill="white"/>
<path d="M10.3361 4.96583C7.62896 4.96583 5.4325 7.22151 5.4325 10.002C5.4325 12.7825 7.62896 15.0382 10.3361 15.0382C13.0434 15.0382 15.2398 12.7825 15.2398 10.002C15.2398 7.22151 13.0434 4.96583 10.3361 4.96583ZM10.3361 13.2688C8.57986 13.2688 7.15526 11.8059 7.15526 10.002C7.15526 8.1981 8.57986 6.73516 10.3361 6.73516C12.0925 6.73516 13.517 8.1981 13.517 10.002C13.517 11.8059 12.0925 13.2688 10.3361 13.2688Z" fill="white"/>
<path d="M16.5785 4.76671C16.5785 5.41598 16.0659 5.94242 15.4336 5.94242C14.8014 5.94242 14.2888 5.41598 14.2888 4.76671C14.2888 4.11729 14.8014 3.591 15.4336 3.591C16.0659 3.591 16.5785 4.11729 16.5785 4.76671Z" fill="white"/>
</svg>
