<svg width="30" height="19" viewBox="0 0 30 19" fill="none" xmlns="http://www.w3.org/2000/svg">
<path d="M24.235 10.7483C23.7823 10.1533 23.9118 9.88857 24.235 9.35671C24.2408 9.35064 27.9778 3.97621 28.3628 2.15357L28.3651 2.15236C28.5565 1.48814 28.3651 1 27.4399 1H24.3785C23.5991 1 23.2398 1.41893 23.0473 1.88764C23.0473 1.88764 21.4885 5.77093 19.2835 8.28814C18.5718 9.0155 18.2428 9.24864 17.8542 9.24864C17.6629 9.24864 17.3654 9.0155 17.3654 8.35129V2.15236C17.3654 1.35579 17.1472 1 16.502 1H11.6882C11.1994 1 10.9088 1.37157 10.9088 1.71764C10.9088 2.47293 12.0114 2.64657 12.1257 4.77157V9.38221C12.1257 10.3925 11.9495 10.5783 11.5587 10.5783C10.518 10.5783 7.99208 6.67921 6.49519 2.21671C6.19301 1.35093 5.89784 1.00121 5.11264 1.00121H2.05004C1.17617 1.00121 1 1.42014 1 1.88886C1 2.717 2.0407 6.83464 5.8395 12.2746C8.37125 15.9879 11.9367 18 15.1802 18C17.1297 18 17.3677 17.5531 17.3677 16.7845C17.3677 13.2364 17.1916 12.9012 18.1681 12.9012C18.6208 12.9012 19.4001 13.1344 21.2202 14.9254C23.3004 17.0492 23.6423 18 24.8067 18H27.8681C28.7408 18 29.183 17.5531 28.9286 16.6716C28.3464 14.8174 24.4123 11.0033 24.235 10.7483V10.7483Z" stroke="white" stroke-width="2"/>
</svg>
