<svg width="25" height="17" viewBox="0 0 25 17" fill="none" xmlns="http://www.w3.org/2000/svg">
<path d="M16.5719 8.30726L25 13.3819V3.01831L16.5719 8.30726Z" fill="white"/>
<path d="M0 3.01831V13.3819L8.42814 8.30726L0 3.01831Z" fill="white"/>
<path d="M23.4377 0H1.56262C0.782936 0 0.164185 0.553599 0.0469971 1.26643L12.5001 9.08081L24.9533 1.26643C24.8361 0.553599 24.2173 0 23.4377 0Z" fill="white"/>
<path d="M15.1407 9.20608L12.9298 10.5931C12.7985 10.6749 12.6501 10.7151 12.5001 10.7151C12.3501 10.7151 12.2016 10.6749 12.0704 10.5931L9.85944 9.20459L0.0500488 15.1141C0.170361 15.821 0.785987 16.3701 1.56255 16.3701H23.4376C24.2141 16.3701 24.8298 15.821 24.9501 15.1141L15.1407 9.20608Z" fill="white"/>
</svg>
