<svg width="18" height="24" viewBox="0 0 18 24" fill="none" xmlns="http://www.w3.org/2000/svg">
<path d="M17.6616 6.01171H15.8346V4.10957C15.8346 3.91504 15.6831 3.75731 15.4962 3.75731H9.33084L9.33007 3.35343C9.3276 1.50436 7.88065 0 6.10051 0C4.32195 0 2.87495 1.50647 2.87495 3.35812V3.75735H0.338359C0.151463 3.75735 0 3.91509 0 4.10962V21.3933C0 21.5879 0.151463 21.7456 0.338359 21.7456H2.16541V23.6477C2.16541 23.8423 2.31687 24 2.50377 24H17.6616C17.8485 24 18 23.8423 18 23.6477V6.36402C18 6.16944 17.8485 6.01171 17.6616 6.01171ZM8.66164 7.67028C8.66227 8.13031 8.49064 8.56297 8.17839 8.88851C7.8661 9.21411 7.4508 9.39336 7.00888 9.39336C6.09754 9.39336 5.35607 8.62147 5.35607 7.67267V6.71624H6.84796L6.84481 7.86594C6.84427 8.06047 6.99533 8.21867 7.18222 8.21919C7.18254 8.21919 7.1829 8.21919 7.18317 8.21919C7.36962 8.21919 7.52099 8.06211 7.52153 7.86791L7.52468 6.71624H8.65979L8.66164 7.67028ZM6.85422 4.46183L6.84999 6.01175H5.35616V4.46183H6.85422ZM5.35616 3.75735V3.36459C5.35616 2.93371 5.6929 2.58318 6.10677 2.58318C6.30762 2.58318 6.49632 2.6647 6.6381 2.81278C6.77998 2.96076 6.85773 3.1574 6.85724 3.36637L6.85616 3.75735H5.35616ZM8.65844 6.01171H7.52666L7.53089 4.46179H8.65547L8.65844 6.01171ZM3.55163 3.35812C3.55167 1.89492 4.69511 0.704483 6.10456 0.704483C7.50807 0.704483 8.65151 1.89328 8.65345 3.3546L8.65417 3.75731H7.53288L7.53396 3.3682C7.5349 2.9706 7.38691 2.59668 7.11721 2.31515C6.84747 2.03367 6.48867 1.87865 6.10672 1.87865C5.31974 1.87865 4.67945 2.54521 4.67945 3.36454V3.75731H3.55163V3.35812ZM2.16546 6.36397V21.0411H0.676719V4.46183H4.67949V6.01175H2.50381C2.31687 6.01171 2.16546 6.16944 2.16546 6.36397ZM17.3233 23.2955H2.84213V6.71624H4.67949V7.67267C4.67949 9.00992 5.72447 10.0978 7.00897 10.0978C7.6318 10.0978 8.21716 9.84514 8.65727 9.38633C9.09734 8.92751 9.33926 8.31772 9.3384 7.66906L9.33651 6.71619H11.1429C11.3297 6.71619 11.4812 6.55846 11.4812 6.36393C11.4812 6.16939 11.3297 6.01166 11.1429 6.01166H9.33516L9.33219 4.46174H15.1579V6.01166H12.812C12.6251 6.01166 12.4737 6.16939 12.4737 6.36393C12.4737 6.55846 12.6251 6.71619 12.812 6.71619H17.3233V23.2955H17.3233Z" fill="white"/>
<path d="M11.5266 11.2721H4.66941C4.48252 11.2721 4.33105 11.4298 4.33105 11.6243C4.33105 11.8189 4.48252 11.9766 4.66941 11.9766H11.5266C11.7135 11.9766 11.8649 11.8189 11.8649 11.6243C11.8649 11.4297 11.7135 11.2721 11.5266 11.2721Z" fill="white"/>
<path d="M16.2184 15.0294H9.72215C9.53525 15.0294 9.38379 15.1871 9.38379 15.3816C9.38379 15.5762 9.53525 15.7339 9.72215 15.7339H16.2184C16.4053 15.7339 16.5567 15.5762 16.5567 15.3816C16.5567 15.1871 16.4053 15.0294 16.2184 15.0294Z" fill="white"/>
<path d="M11.5266 18.7867H4.66941C4.48252 18.7867 4.33105 18.9444 4.33105 19.139C4.33105 19.3335 4.48252 19.4912 4.66941 19.4912H11.5266C11.7135 19.4912 11.8649 19.3335 11.8649 19.139C11.8649 18.9444 11.7135 18.7867 11.5266 18.7867Z" fill="white"/>
<path d="M16.2183 11.2721H12.9702C12.7833 11.2721 12.6318 11.4298 12.6318 11.6243C12.6318 11.8189 12.7833 11.9766 12.9702 11.9766H16.2183C16.4052 11.9766 16.5567 11.8189 16.5567 11.6243C16.5567 11.4297 16.4052 11.2721 16.2183 11.2721Z" fill="white"/>
<path d="M8.27845 15.0294H4.66941C4.48252 15.0294 4.33105 15.1871 4.33105 15.3816C4.33105 15.5762 4.48252 15.7339 4.66941 15.7339H8.27845C8.46534 15.7339 8.61681 15.5762 8.61681 15.3816C8.61676 15.1871 8.46534 15.0294 8.27845 15.0294Z" fill="white"/>
<path d="M16.2183 18.7867H12.9702C12.7833 18.7867 12.6318 18.9444 12.6318 19.139C12.6318 19.3335 12.7833 19.4912 12.9702 19.4912H16.2183C16.4052 19.4912 16.5567 19.3335 16.5567 19.139C16.5567 18.9444 16.4052 18.7867 16.2183 18.7867Z" fill="white"/>
</svg>
