<svg width="31" height="36" viewBox="0 0 31 36" fill="none" xmlns="http://www.w3.org/2000/svg">
<rect x="5.46008" y="2.69997" width="25.04" height="31.24" rx="2.5" fill="#F86D0B" stroke="white"/>
<rect x="12.0732" y="0.633301" width="11.4" height="4.37333" fill="#F86D0B" stroke="white"/>
<circle cx="5.16667" cy="30.1" r="4.66667" fill="#F86D0B" stroke="white"/>
<line x1="3.20566" y1="29.9162" x2="5.27233" y2="31.5695" stroke="white"/>
<line x1="7.45061" y1="28.9183" x2="5.38394" y2="32.225" stroke="white"/>
<line x1="8.67993" y1="9.5533" x2="11.5733" y2="9.5533" stroke="white"/>
<line x1="8.67993" y1="14.1" x2="11.5733" y2="14.1" stroke="white"/>
<line x1="8.67993" y1="18.2333" x2="11.5733" y2="18.2333" stroke="white"/>
<line x1="8.67993" y1="22.78" x2="11.5733" y2="22.78" stroke="white"/>
<line x1="8.67993" y1="26.9133" x2="11.5733" y2="26.9133" stroke="white"/>
<line x1="13.64" y1="9.5533" x2="26.8667" y2="9.5533" stroke="white"/>
<line x1="13.64" y1="14.1" x2="26.8667" y2="14.1" stroke="white"/>
<line x1="13.64" y1="18.2333" x2="26.8667" y2="18.2333" stroke="white"/>
<line x1="13.64" y1="22.78" x2="26.8667" y2="22.78" stroke="white"/>
<line x1="13.64" y1="26.9133" x2="26.8667" y2="26.9133" stroke="white"/>
</svg>
