<svg width="21" height="14" viewBox="0 0 21 14" fill="none" xmlns="http://www.w3.org/2000/svg">
<path d="M13.9209 6.97821L21.0007 11.241V2.5354L13.9209 6.97821Z" fill="#F86D0B"/>
<path d="M0 2.5354V11.241L7.07977 6.97821L0 2.5354Z" fill="#F86D0B"/>
<path d="M19.6881 0H1.3127C0.657751 0 0.13799 0.465032 0.0395508 1.06382L10.5004 7.62803L20.9612 1.06382C20.8628 0.465032 20.343 0 19.6881 0Z" fill="#F86D0B"/>
<path d="M12.7179 7.73324L10.8607 8.89833C10.7504 8.96708 10.6257 9.00083 10.4997 9.00083C10.3737 9.00083 10.249 8.96708 10.1388 8.89833L8.28155 7.73199L0.0415039 12.6961C0.142569 13.2899 0.659704 13.7512 1.31203 13.7512H19.6874C20.3397 13.7512 20.8569 13.2899 20.9579 12.6961L12.7179 7.73324Z" fill="#F86D0B"/>
</svg>
