<svg width="35" height="31" viewBox="0 0 35 31" fill="none" xmlns="http://www.w3.org/2000/svg">
<path d="M34.8358 10.0293L29.7673 6.44919V1.21975C29.7165 0.701723 29.3174 0.285948 28.8019 0.214111H6.59711C6.08162 0.286025 5.68248 0.701723 5.63166 1.21975V6.40892L0.362032 10.0292C0.153298 10.1808 0.0210967 10.4158 0 10.6728V29.7802C0.0685258 30.3047 0.48122 30.7174 1.00564 30.7859H34.3933C34.8358 30.7859 34.9967 30.2629 34.9967 29.7802V10.6729C34.9967 10.4315 35.0369 10.1902 34.8358 10.0293ZM29.7673 8.38001L33.2268 10.7533L29.7673 13.368V8.38001ZM7.24071 1.82316H28.1582V14.6151L17.6994 22.4994L7.24063 14.6151V1.82316H7.24071ZM5.63166 8.33981V13.4083L2.17219 10.7534L5.63166 8.33981ZM1.60905 12.4026L12.8724 20.9305L1.60905 28.5333V12.4026ZM3.53993 29.1769L14.24 21.9765L17.0961 24.1486C17.2578 24.2736 17.455 24.3441 17.6593 24.3498C17.8202 24.3498 17.9006 24.2693 18.0615 24.1486L21.0382 21.8557L31.859 29.1769H3.53993ZM33.3877 28.2517L22.3657 20.8501L33.3877 12.4026V28.2517Z" fill="white"/>
<path d="M11.2633 7.05253H14.8836C15.3279 7.05253 15.6881 6.69235 15.6881 6.24801C15.6881 5.80367 15.3279 5.44348 14.8836 5.44348H11.2633C10.8189 5.44348 10.4587 5.80367 10.4587 6.24801C10.4587 6.69235 10.8189 7.05253 11.2633 7.05253Z" fill="white"/>
<path d="M11.2633 10.673H24.1357C24.58 10.673 24.9402 10.3128 24.9402 9.86843C24.9402 9.42409 24.58 9.0639 24.1357 9.0639H11.2633C10.8189 9.0639 10.4587 9.42409 10.4587 9.86843C10.4587 10.3128 10.8189 10.673 11.2633 10.673Z" fill="white"/>
<path d="M24.9401 13.4887C24.9401 13.0444 24.5799 12.6842 24.1356 12.6842H11.2633C10.8189 12.6842 10.4587 13.0444 10.4587 13.4887C10.4587 13.9331 10.8189 14.2933 11.2633 14.2933H24.1357C24.5799 14.2933 24.9401 13.9331 24.9401 13.4887Z" fill="white"/>
</svg>
